<svg id="Camada_1" data-name="Camada 1" xmlns="http://www.w3.org/2000/svg" viewBox="0 0 747.67 747.67">
  <g id="Whatsapp">
    <path d="M385.6,30.46h-.2c-199.23,0-361.27,162.1-361.27,361.37A358.64,358.64,0,0,0,92.94,603.65l-45,134.28,138.9-44.41a358.41,358.41,0,0,0,198.8,59.71c199.23,0,361.27-162.12,361.27-361.4S584.83,30.46,385.6,30.46Z" transform="translate(-11.67 -18)" style="fill: #fff"/>
    <path d="M186.8,693.49a358.42,358.42,0,0,0,198.8,59.72c199.23,0,361.27-162.1,361.27-361.38a359.56,359.56,0,0,0-13.33-95.92C680.38,162.5,550.19,67.84,398.06,67.84h-.2c-199.23,0-361.27,162.1-361.27,361.38,0,10.19-2.17,20.53-5.71,30.93A358.68,358.68,0,0,0,92.94,603.62L47.9,737.9Z" transform="translate(-11.67 -18)" style="fill: #c6ff00"/>
    <path d="M385.6,765.67A371.52,371.52,0,0,1,185,707.17L51.69,749.77a12.45,12.45,0,0,1-15.6-15.83l43-128.25A369.78,369.78,0,0,1,11.67,391.83c0-101.58,40.17-196.66,113.12-267.71A12.45,12.45,0,1,1,142.16,142C74.1,208.31,36.59,297,36.59,391.83A345.06,345.06,0,0,0,103,596.3a12.5,12.5,0,0,1,1.72,11.31L67.54,718.56,183,681.65a12.53,12.53,0,0,1,10.69,1.47,346.65,346.65,0,0,0,191.9,57.62c192.35,0,348.81-156.51,348.81-348.91S578,42.92,385.6,42.92h-.08A344.65,344.65,0,0,0,231.9,78.54a12.46,12.46,0,1,1-11-22.36A369.44,369.44,0,0,1,385.4,18c206.26,0,373.93,167.7,373.93,373.83S591.66,765.67,385.6,765.67Z" transform="translate(-11.67 -18)" style="fill: #455a64"/>
    <g>
      <path d="M577.82,475.17c-10.61-5.31-62.23-30.8-72-34.21-9.57-3.62-18.69-2.32-25.89,7.87-10.22,14.23-20.19,28.69-28.26,37.38-6.38,6.81-16.8,7.65-25.47,4-11.69-4.88-44.39-16.37-84.74-52.26-31.23-27.81-52.46-62.46-58.64-72.85-6.16-10.62-.62-16.8,4.26-22.53,5.31-6.58,10.39-11.26,15.7-17.42s8.3-9.34,11.72-16.57c3.61-7,1-14.23-1.52-19.57s-23.78-57.14-32.5-78.18c-7-16.77-12.31-17.42-22.93-17.84-3.64-.2-7.65-.42-12.11-.42-13.81,0-28.24,4-36.94,12.95-10.64,10.85-37,36.12-37,88s37.81,102,42.92,109c5.31,7,73.69,114.92,179.89,158.91,83,34.42,107.69,31.23,126.58,27.19,27.61-6,62.23-26.37,71-51S600.6,492,598,487.48,588.44,480.51,577.82,475.17Z" transform="translate(-11.67 -18)" style="fill: #fff"/>
      <path d="M500.19,603.5h0c-25.19,0-60.36-9.72-110.63-30.56-65.62-27.16-130.66-84.08-183.18-160.22l-1.87-2.67c-17.34-23.7-45.43-69.11-45.43-116.51,0-55.55,27.79-83.74,39.68-95.78,11.19-11.49,27.91-17.59,46.7-17.59,4.74,0,9,.22,12.84.45,15.82.62,25,4.61,33.72,25.47l9,21.93c9.57,23.2,21.36,51.84,23.21,55.7,2,4.21,8.25,17.15,1.34,30.61-3.69,7.87-7.3,12-12.26,17.76-3.49,4-5.81,6.51-8.17,9-2.75,2.94-5.54,5.83-8.33,9.35-4.81,5.63-4.81,5.63-3.19,8.45,9.22,15.57,28.84,45.48,56.15,69.78,35.44,31.52,64.08,43.11,77.83,48.7l3.42,1.39c3.61,1.5,8.17,2.57,11.59-1,6.18-6.66,14-17.6,22.28-29.19l5-6.95c8.69-12.29,19.41-14.88,26.86-14.88a38.35,38.35,0,0,1,13.54,2.62c11.58,4,72.57,34.41,73.19,34.71l5.86,2.87c8.72,4.19,15.6,7.5,19.54,14.43,5.7,9.92,3.46,35.94-5.21,60.49-10.39,29.38-49,52.33-80.08,59A107.1,107.1,0,0,1,500.19,603.5ZM245.44,205.09c-11.77,0-22.48,3.54-28,9.2C205.94,226,184,248.21,184,293.54c0,29.43,14.58,66.24,40,101l2.89,4.11c49.79,72.23,111,126,172.19,151.33,47.18,19.56,79.3,28.66,101.11,28.66h0a82.39,82.39,0,0,0,18.12-2.12c24.24-5.23,54.77-23.15,61.78-43,7.57-21.36,7.42-37.79,6.53-41-.05.77-4.54-1.35-8.15-3.09l-6.21-3c-17.47-8.75-62.63-30.81-70.53-33.57a14.2,14.2,0,0,0-5-1.12c-1.12,0-3.44,0-6.58,4.43l-5,7c-8.74,12.26-17,23.83-24.32,31.7-9.4,10.05-25.52,12.84-39.4,7.06l-3.17-1.3c-13.88-5.61-46.4-18.77-85.06-53.16-29.8-26.57-51.06-58.89-61.08-75.81-10.54-18.17.15-30.68,5.28-36.69,3.27-4.06,6.46-7.43,9.65-10.82,2.09-2.21,4.18-4.43,6.33-6.92,5.61-6.46,7.45-8.6,9.87-13.76.72-1.42,1.12-3.44-1.47-8.82-1.9-4-14-33.25-23.75-57l-9-21.85c-4.11-9.87-4.11-9.87-11.93-10.17C253.44,205.29,249.65,205.09,245.44,205.09Z" transform="translate(-11.67 -18)" style="fill: #455a64"/>
    </g>
    <circle cx="161.99" cy="74.77" r="12.46" style="fill: #455a64"/>
  </g>
</svg>
